PathFileType	4	(X/Y/Z)	20_1_tpose_p1_0-220_filt_butterworth.trc
DataRate	CameraRate	NumFrames	NumMarkers	Units	OrigDataRate	OrigDataStartFrame	OrigNumFrames
57.0	57.0	7	27	m	57.0	165	220
Frame#	Time	RHip			RKnee			RAnkle			RBigToe			RSmallToe			RHeel			LHip			LKnee			LAnkle			LBigToe			LSmallToe			LHeel			Neck			Head			Nose			RShoulder			RElbow			RWrist			RThumb			RIndex			RPinky			LShoulder			LElbow			LWrist			LThumb			LIndex			LPinky			
		X1	Y1	Z1	X2	Y2	Z2	X3	Y3	Z3	X4	Y4	Z4	X5	Y5	Z5	X6	Y6	Z6	X7	Y7	Z7	X8	Y8	Z8	X9	Y9	Z9	X10	Y10	Z10	X11	Y11	Z11	X12	Y12	Z12	X13	Y13	Z13	X14	Y14	Z14	X15	Y15	Z15	X16	Y16	Z16	X17	Y17	Z17	X18	Y18	Z18	X19	Y19	Z19	X20	Y20	Z20	X21	Y21	Z21	X22	Y22	Z22	X23	Y23	Z23	X24	Y24	Z24	X25	Y25	Z25	X26	Y26	Z26	X27	Y27	Z27	
165	2.894736842105264	0.34586009139203944	0.6909249327841833	0.8015981077522981	0.3526472330268888	0.264896319493065	0.8036901006110992	0.35288800290881417	-0.16481241625589685	0.8367025908613971	0.32128215641586366	-0.1765504006602694	0.6515744108242061	0.388890847348614	-0.18066055713814086	0.664745032136916	0.3291244896419746	-0.23436556928790542	0.899640481389657	0.14561022305012872	0.6952808694429811	0.7938607253606946	0.14354839319658652	0.2882372376061947	0.820139867588225	0.14048582048797975	-0.10474136718356301	0.826313556713502	0.14731300742753037	-0.13265737959740054	0.6190196193306298	0.09614995951462096	-0.15078282033646145	0.678571886948816	0.15055114514068282	-0.1681687549217678	0.8711727095047764	0.23913482025238975	1.2190072670789696	0.8240670302971195	0.2519684001144223	1.4580250929108438	0.7468224058405617	0.22280395945896297	1.3553568091298946	0.6591509774934694	0.39088814547408	1.1892832330346834	0.7723805291756913	0.6477538572521612	1.195108619544747	0.8077484694713178	0.8780350188131382	1.1976615040466618	0.798895373344352	1.0113325918878513	1.177185136142278	0.8141270900128252	1.0396716880978931	1.177768744822282	0.83048126463065	1.0027417215032166	1.1496307741615555	0.8778412509604027	0.10368462877241905	1.1780673585985384	0.8332172924199603	-0.13330826887234265	1.2011069520078543	0.927444601550532	-0.36819842289186017	1.2344013977818764	0.9532000389232393	-0.4595334045241462	1.2111031076950798	0.9374025313969789	-0.48837941854689343	1.2306140408674102	0.9271074139049846	-0.46641787934383383	1.2169942037357802	1.0182531765444627	
166	2.912280701754386	0.34588801584211853	0.6904972533665994	0.802706476266086	0.3526347407054888	0.2649082743851511	0.8036969529253345	0.35260067948086493	-0.16550773225480095	0.8381247461481738	0.32139415824108386	-0.17669475858401376	0.6519522604368283	0.38919603215645426	-0.18062859756761956	0.6647070005417112	0.32917195515662895	-0.23437309087331737	0.899858790281574	0.14565840205062844	0.6956142102132155	0.7938235228254596	0.1435350929068878	0.28830675101211806	0.8201470343012589	0.14048428561549547	-0.10472721245016926	0.8263056183968898	0.14729787788868362	-0.13276231922136306	0.6190458005696178	0.0961474871796035	-0.15089263315342646	0.6787182743567142	0.15067576276351047	-0.16829727652630727	0.8715488893286767	0.23833548246784225	1.218527106458407	0.8265821381153602	0.2519507926595326	1.458082927017115	0.7468114339458758	0.22279371326809766	1.355348089178406	0.6591379527157456	0.39003730219388516	1.1892913934407783	0.7722561549668364	0.6477841888958837	1.1945803759916898	0.8079701255142049	0.8792095882622756	1.197182512902365	0.8010320917618146	1.0119753831418967	1.177126890122111	0.8145085152835835	1.039646681831983	1.178341242822719	0.8277613917162631	1.002345243742527	1.1488350820053324	0.8783492684301617	0.10364884537869368	1.1781112322528255	0.8332363179422757	-0.1333102787208017	1.201119896307106	0.9274805807297253	-0.36931010413879806	1.233931364425036	0.9556600455183867	-0.46018265328374147	1.2105268738675738	0.9379075802162099	-0.48822554057103495	1.2305864053778814	0.927229551038818	-0.46643028515378554	1.2170253824366442	1.0182992132001432	
167	2.929824561403509	0.34589812789277286	0.6900372547352814	0.8037476815626075	0.3526441397306289	0.2649120279679126	0.8037125489011844	0.3522877502358175	-0.16628711705461352	0.8396386276081229	0.321305129145959	-0.17651655744242528	0.6518370795741132	0.38989945737644033	-0.18065834700834257	0.6647830048442329	0.3292731418788955	-0.23434040785200683	0.9003519669085706	0.14570056380412286	0.6959143847804596	0.793777443655039	0.14354436189361441	0.2881264346225936	0.8201432609205646	0.1404829018404779	-0.10472020985372144	0.8263041811083863	0.14731710430897205	-0.13276834520665798	0.6189260552515035	0.0962106855813094	-0.15058772247004937	0.6788154923325331	0.15084008320804823	-0.168615702018146	0.8718662696305344	0.23756470722605436	1.2181040443832354	0.8287556353861579	0.25194042757854457	1.4581513182958594	0.746806470910051	0.22278401347415622	1.355340115396387	0.6591365258112037	0.38912270359276785	1.189305601390446	0.7721116815289624	0.6478786082121079	1.1938761988039774	0.8082258291172616	0.8804752452856346	1.1966704264496568	0.8033229749419288	1.0123694408554922	1.1771763352643747	0.8144331034569539	1.0396373392667735	1.1788649541474718	0.825257132065983	1.001918171627777	1.1484471784086634	0.8770434109197958	0.10361557288971399	1.178159818508828	0.8332620188249303	-0.13330955604785852	1.2011827690728447	0.927513963620409	-0.37052092318592855	1.2334329134743636	0.9582898232737069	-0.4611891434610064	1.2101533533088944	0.9368273534910856	-0.48817551252477026	1.2305808422184197	0.9272009776122276	-0.46647026031288663	1.2170734949061897	1.0183670980299342	
168	2.9473684210526314	0.3459775510538957	0.6895706555159777	0.804695284085126	0.3526541896841738	0.26491085855882407	0.8037292197523535	0.35194256951065767	-0.16712596161950252	0.8412282752508509	0.32114722228280923	-0.1764847912171198	0.6516433214359044	0.3908264814228781	-0.18077318341753948	0.6649968333417576	0.32941871012314	-0.23425837112390113	0.9010603859112234	0.1457361937251757	0.6961628253116269	0.7937266223560138	0.1435796869895915	0.2876776105819186	0.8201405227576543	0.14048364263539656	-0.10472075805643062	0.8263074370789386	0.1473929268994614	-0.13261633032760656	0.6186068988922532	0.09637694895602725	-0.14983323507909385	0.6788531818777181	0.15097599251206065	-0.16898143594431186	0.8720707372982142	0.23692816242101428	1.2178431646924395	0.8302929800192524	0.25193469225067106	1.4582201278510427	0.7468161161027286	0.22277705542905116	1.3553327977240657	0.6591494100890711	0.3882515604748149	1.1893236094062676	0.7719692961384501	0.6480219090716051	1.1930638374688136	0.8084969417893748	0.8816718757665637	1.196176778779215	0.8054721053297518	1.012522597329366	1.177251203582225	0.8141991131480293	1.0396541818655962	1.1792690774432573	0.8233129230361078	1.0018667513711919	1.148527880293944	0.8742603313704871	0.10358898415393603	1.178208051696082	0.8332926467056103	-0.13330276861246929	1.2012555526979711	0.9275481814653987	-0.37166066312280066	1.23296474777947	0.9607606081617412	-0.4624368680497803	1.2098383202928416	0.9353224259859614	-0.48801258405391346	1.230578616172665	0.9272118033075147	-0.46652538623053147	1.2171201583267248	1.0184642600078204	
169	2.9649122807017543	0.3461855249713084	0.6891674406117518	0.8055296785386125	0.35265961843739146	0.2649049871190146	0.8037459863676664	0.35155964891389785	-0.16796383802522263	0.8429359417610685	0.320981575676758	-0.17688366345580567	0.6516213730008373	0.39168346867894677	-0.18096397601149333	0.6653172958977172	0.3295712801177773	-0.2341902947714803	0.9017941129813929	0.1457656646122859	0.6963519669476126	0.793679729190681	0.14364126443935507	0.2870375711181363	0.8201556495402966	0.14048789794109115	-0.10472340679631224	0.8263106317884544	0.14745955747253658	-0.13246874101423908	0.6183273526473594	0.09665465498321019	-0.14881164375018285	0.6787976668841331	0.15106779521821095	-0.16930538617703345	0.8722167001584977	0.23651565139257252	1.2179062445325326	0.8309919531919621	0.2519293322014975	1.458281185700594	0.7468394498975812	0.2227733927933057	1.3553275197301353	0.659172517217276	0.38751277650818894	1.1893375968488753	0.7718539460794878	0.6481963229789343	1.1922304574844904	0.8087642191934035	0.8826346725834597	1.1957657286484737	0.8071832191220242	1.0124923462946547	1.177288313390261	0.8140523767054422	1.0396804535813673	1.1795073919050683	0.8221583579389156	1.0025304945201097	1.1490199603086488	0.8707619179753107	0.10357131714488514	1.1782515332477652	0.8333213704227637	-0.13328823031223277	1.2013193496247974	0.9276053372709692	-0.3725555527925287	1.232587562073267	0.9627365714525853	-0.4637613371714371	1.2095129873970023	0.934162261176383	-0.48760544582171983	1.2305573725826373	0.9273965576591436	-0.4665797178138132	1.217154539966062	1.018544262680534	
170	2.982456140350877	0.34649757983634455	0.688887438868062	0.8062351522827975	0.3526622968632444	0.2648942246035749	0.803763599924322	0.3511588628887317	-0.168749463113129	0.844815178189503	0.32080310421732755	-0.1776805420971903	0.6517685391151842	0.39223949910856915	-0.18120567139418314	0.6656969193202077	0.3296473207720407	-0.23421530170065283	0.9022680780717858	0.14578898372649596	0.6964868157501232	0.7936446724349824	0.14372253437274093	0.28634310927662493	0.8201906255246493	0.14049538765377717	-0.10472229401523084	0.8263098227278107	0.14737905514327476	-0.13267575401716614	0.6185665683469366	0.09695728787065894	-0.14781320409179438	0.6785897172328378	0.1511431480133647	-0.16962162260976993	0.8723478386789663	0.23634608540621838	1.2183945919852401	0.8309095928495388	0.251920601565273	1.458331076590492	0.7468691890546191	0.22277150717287691	1.3553262261002257	0.6591996293606026	0.38699526061607953	1.1893415605764008	0.7717863653830246	0.6483886661611828	1.1915487788043575	0.808955012715671	0.883218193743927	1.1954994365027622	0.8082010689017038	1.012397277957452	1.1772935624190841	0.8140042472165563	1.0396907051397277	1.1796019891237615	0.8217102213217597	1.0037961464969611	1.1497977285946896	0.8674247121376237	0.10356590134239728	1.1782823035988383	0.833346380619564	-0.1332699217864908	1.2013734585634754	0.9276888054539675	-0.3730638406012068	1.2323578175825878	0.9639176990507367	-0.46497338275614053	1.2092373172842208	0.9334364102290111	-0.4869653661740189	1.2305065766863086	0.9277599516085571	-0.46662634402839476	1.2171882323605374	1.0184818875434385	
171	3.0	0.346832697662518	0.6887506259113891	0.8067864868432256	0.35266431409436433	0.2648803337384091	0.8037816469466611	0.35079040205976214	-0.1695138372151165	0.8467788357822489	0.32061163882576865	-0.178682731277653	0.6519506699260684	0.39238381063520644	-0.181468981836028	0.6660962344354612	0.3295687350392166	-0.2343901222405579	0.9022921279678919	0.1458048600003039	0.6965690402815073	0.7936234091631824	0.14380967620771226	0.2857050210242059	0.8202339655271388	0.14050323413653093	-0.1047191207096992	0.826307331456362	0.14705720258765442	-0.13349182161466505	0.6196565346949799	0.09711156824125758	-0.14708609394035155	0.6782065284414772	0.1512324201689841	-0.1700169207037029	0.8724719426813835	0.23633292891283694	1.2192283139119264	0.8304935861998247	0.2519095187357137	1.4583707265856432	0.7468985580643053	0.22276919820773977	1.3553290957729636	0.6592269341577863	0.38679782704699495	1.189336079788109	0.7717807981523594	0.6485764943271697	1.1912616465313015	0.8089112926771642	0.8833711310465844	1.195404201181047	0.8084610283772583	1.0123418075061197	1.1772934594606033	0.8139861771017874	1.0396854579395818	1.1796443724930048	0.8215773450904644	1.0051579501855588	1.1506308388208377	0.8649210910440008	0.10357646918874652	1.1782905732150577	0.8333737001174768	-0.13325463036644303	1.2014207826228613	0.9277777548506058	-0.37316221074695677	1.2322908768860916	0.9642280145762805	-0.4658785888304793	1.209097911952091	0.933002270436581	-0.48619778589320717	1.230429378634571	0.928216493657299	-0.4666622500025839	1.2172306900770944	1.0182017605829694	
